<?xml version="1.0" encoding="iso-8859-1"?>
<!-- Generator: Adobe Illustrator 18.0.0, SVG Export Plug-In . SVG Version: 6.00 Build 0)  -->
<!DOCTYPE svg PUBLIC "-//W3C//DTD SVG 1.1//EN" "http://www.w3.org/Graphics/SVG/1.1/DTD/svg11.dtd">
<svg version="1.1" id="Capa_1" xmlns="http://www.w3.org/2000/svg" xmlns:xlink="http://www.w3.org/1999/xlink" x="0px" y="0px"
	 viewBox="0 0 449.33 449.33" style="enable-background:new 0 0 449.33 449.33;" xml:space="preserve">
<path d="M402.034,117.653c-1.29-1.514-3.129-2.454-5.112-2.612l-39.593-3.163l4.342-54.319c0.33-4.129-2.75-7.744-6.878-8.074
	l-23.673-1.893l2.731-34.103c0.159-1.983-0.477-3.948-1.767-5.462s-3.129-2.454-5.112-2.613l-67.41-5.39
	c-4.133-0.33-7.743,2.749-8.074,6.877l-2.731,34.105l-15.665-1.252c-1.979-0.159-3.947,0.477-5.461,1.767
	c-1.514,1.29-2.454,3.129-2.612,5.111l-4.343,54.326l-30.972-2.475c-4.12-0.333-7.743,2.75-8.073,6.879l-3.046,38.127
	c-0.159,1.982,0.477,3.947,1.767,5.461c1.29,1.514,3.129,2.454,5.112,2.612l13.639,1.09l-0.64,8.026l-39.075-8.655
	c11.217-9.051,17.498-23.641,15.212-38.896c-1.661-11.082-7.538-20.854-16.548-27.515s-20.077-9.416-31.158-7.755
	c-11.082,1.661-20.854,7.538-27.515,16.548s-9.416,20.076-7.754,31.157c1.661,11.082,7.538,20.854,16.548,27.515
	c2.46,1.819,5.076,3.339,7.8,4.565c-7.985,5.989-13.562,14.505-15.846,24.343L46.255,414.005
	c-3.592,15.473,6.073,30.983,21.545,34.576c2.184,0.507,4.366,0.75,6.517,0.75c13.094-0.001,24.973-9.006,28.058-22.295
	l24.189-104.18l13.895,24.241l-18.075,46.925c-5.689,14.771,1.699,31.416,16.47,37.105c7.156,2.756,14.955,2.562,21.963-0.55
	c7.008-3.11,12.386-8.764,15.142-15.919l23.119-60.023c2.901-7.531,2.28-15.876-1.703-22.896l-31.54-55.578l8.556-37.594
	l16.656,8.833c3.945,2.092,8.281,3.122,12.604,3.122c5.739,0,11.454-1.816,16.196-5.374l20.57-15.433l28.623,6.285
	c5.288,1.16,10.559,0.793,15.359-0.797l64.187,5.123c0.203,0.017,0.405,0.024,0.605,0.024c3.871,0,7.154-2.978,7.468-6.903
	l5.413-67.774l30.607,2.445c0.203,0.017,0.405,0.024,0.605,0.024c3.871,0,7.154-2.978,7.468-6.903l3.046-38.126
	C403.96,121.131,403.324,119.167,402.034,117.653z M265.842,15.574l52.458,4.194l-2.133,26.627l-52.458-4.194L265.842,15.574z
	 M239.374,55.304l106.748,8.534l-3.744,46.844l-106.748-8.529L239.374,55.304z M106.459,123.341L106.459,123.341
	c-1.067-7.12,0.702-14.228,4.982-20.017c4.28-5.789,10.558-9.564,17.677-10.631c1.354-0.203,2.707-0.303,4.052-0.303
	c5.724,0,11.278,1.82,15.965,5.285c5.789,4.28,9.564,10.558,10.631,17.677c2.202,14.697-7.962,28.446-22.659,30.649
	c-7.119,1.066-14.228-0.703-20.017-4.982C111.301,136.738,107.526,130.461,106.459,123.341z M210.847,233.15
	c-3.686,2.766-8.698,3.157-12.771,0.998l-20.236-10.732l1.613-7.087l41.63,9.141L210.847,233.15z M272.259,221.349l-96.857-21.267
	c-4.023-0.882-8.008,1.645-8.921,5.661l-15.915,69.925c-0.415,1.825-0.133,3.739,0.79,5.366l32.975,58.107
	c1.757,3.097,2.031,6.778,0.751,10.101l-23.12,60.023c-1.315,3.417-3.883,6.116-7.229,7.601c-3.346,1.485-7.07,1.579-10.487,0.262
	c-7.052-2.716-10.58-10.664-7.864-17.716l19.357-50.254c0.811-2.107,0.63-4.467-0.492-6.425l-25.164-43.901
	c-1.533-2.675-4.545-4.141-7.599-3.69c-3.051,0.449-5.516,2.72-6.213,5.724L87.764,423.643c-1.722,7.417-9.155,12.048-16.571,10.327
	c-7.416-1.722-12.048-9.156-10.327-16.572l53.871-232.018c2.944-12.681,14.272-21.275,26.812-21.275
	c2.068,0,4.171,0.234,6.273,0.722l130.525,28.912v0c7.597,1.683,12.42,9.235,10.751,16.836
	C287.427,218.187,279.874,223.023,272.259,221.349z M342.306,224.778l-41.43-3.307c1.286-2.358,2.27-4.929,2.874-7.681
	c3.439-15.664-6.501-31.229-22.158-34.698l-68.343-15.138l0.806-10.107l133.067,10.632L342.306,224.778z M386.4,152.57
	l-192.265-15.361l1.852-23.174l192.265,15.362L386.4,152.57z"/>
<g>
</g>
<g>
</g>
<g>
</g>
<g>
</g>
<g>
</g>
<g>
</g>
<g>
</g>
<g>
</g>
<g>
</g>
<g>
</g>
<g>
</g>
<g>
</g>
<g>
</g>
<g>
</g>
<g>
</g>
</svg>
